<svg xmlns="http://www.w3.org/2000/svg" style="display: none;">
  <symbol id="fa-xmark-custom" viewBox="0 0 640 640">
    <path d="M183.1 137.4C170.6 124.9 150.3 124.9 137.8 137.4C125.3 149.9 125.3 170.2 137.8 182.7L275.2 320L137.9 457.4C125.4 469.9 125.4 490.2 137.9 502.7C150.4 515.2 170.7 515.2 183.2 502.7L320.5 365.3L457.9 502.6C470.4 515.1 490.7 515.1 503.2 502.6C515.7 490.1 515.7 469.8 503.2 457.3L365.8 320L503.1 182.6C515.6 170.1 515.6 149.8 503.1 137.3C490.6 124.8 470.3 124.8 457.8 137.3L320.5 274.7L183.1 137.4z"/>
  </symbol>
  <symbol id="fa-moon" viewBox="0 0 512 512">
    <path d="M223.5 32C100 32 0 132.3 0 256s100 224 223.5 224c60.6 0 115.5-24.2 155.8-63.4 5-4.9 6.3-12.5 3.1-18.7s-10.1-9.7-17-8.5c-9.8 1.7-19.8 2.6-30.1 2.6-96.9 0-175.5-78.8-175.5-176 0-65.8 36-123.1 89.3-153.3 6.1-3.5 9.2-10.5 7.7-17.3s-7.3-11.9-14.3-12.5c-6.3-.5-12.6-.8-19-.8z"/>
  </symbol>
  <symbol id="fa-sun" viewBox="0 0 640 640">
    <path d="M210.2 53.9C217.6 50.8 226 51.7 232.7 56.1L320.5 114.3L408.3 56.1C415 51.7 423.4 50.9 430.8 53.9C438.2 56.9 443.4 63.5 445 71.3L465.9 174.5L569.1 195.4C576.9 197 583.5 202.4 586.5 209.7C589.5 217 588.7 225.5 584.3 232.2L526.1 320L584.3 407.8C588.7 414.5 589.5 422.9 586.5 430.3C583.5 437.7 576.9 443.1 569.1 444.6L465.8 465.4L445 568.7C443.4 576.5 438 583.1 430.7 586.1C423.4 589.1 414.9 588.3 408.2 583.9L320.4 525.7L232.6 583.9C225.9 588.3 217.5 589.1 210.1 586.1C202.7 583.1 197.3 576.5 195.8 568.7L175 465.4L71.7 444.5C63.9 442.9 57.3 437.5 54.3 430.2C51.3 422.9 52.1 414.4 56.5 407.7L114.7 320L56.5 232.2C52.1 225.5 51.3 217.1 54.3 209.7C57.3 202.3 63.9 196.9 71.7 195.4L175 174.6L195.9 71.3C197.5 63.5 202.9 56.9 210.2 53.9zM239.6 320C239.6 275.6 275.6 239.6 320 239.6C364.4 239.6 400.4 275.6 400.4 320C400.4 364.4 364.4 400.4 320 400.4C275.6 400.4 239.6 364.4 239.6 320zM448.4 320C448.4 249.1 390.9 191.6 320 191.6C249.1 191.6 191.6 249.1 191.6 320C191.6 390.9 249.1 448.4 320 448.4C390.9 448.4 448.4 390.9 448.4 320z"/>
  </symbol>
  <symbol id="fa-circle-info" viewBox="0 0 512 512">
    <path d="M256 512c141.4 0 256-114.6 256-256S397.4 0 256 0 0 114.6 0 256s114.6 256 256 256zM216 336h24V272H216c-13.3 0-24-10.7-24-24s10.7-24 24-24h48c13.3 0 24 10.7 24 24v88h8c13.3 0 24 10.7 24 24s-10.7 24-24 24H216c-13.3 0-24-10.7-24-24s10.7-24 24-24zm40-144c-17.7 0-32-14.3-32-32s14.3-32 32-32 32 14.3 32 32-14.3 32-32 32z"/>
  </symbol>
  <symbol id="fa-ban" viewBox="0 0 512 512">
    <path d="M367.2 412.5L99.5 144.8C77.1 176.1 64 214.5 64 256c0 106 86 192 192 192c41.5 0 79.9-13.1 111.2-35.5zm45.3-45.3C434.9 335.9 448 297.5 448 256c0-106-86-192-192-192c-41.5 0-79.9 13.1-111.2 35.5L412.5 367.2zM512 256c0 141.4-114.6 256-256 256S0 397.4 0 256S114.6 0 256 0S512 114.6 512 256z"/>
  </symbol>
  <symbol id="fa-server" viewBox="0 0 512 512">
    <path d="M64 32C28.7 32 0 60.7 0 96v64c0 35.3 28.7 64 64 64H448c35.3 0 64-28.7 64-64V96c0-35.3-28.7-64-64-64H64zM344 152c-13.3 0-24-10.7-24-24s10.7-24 24-24s24 10.7 24 24s-10.7 24-24 24zm96-24c0 13.3-10.7 24-24 24s-24-10.7-24-24s10.7-24 24-24s24 10.7 24 24zM64 288c-35.3 0-64 28.7-64 64v64c0 35.3 28.7 64 64 64H448c35.3 0 64-28.7 64-64V352c0-35.3-28.7-64-64-64H64zM344 408c-13.3 0-24-10.7-24-24s10.7-24 24-24s24 10.7 24 24s-10.7 24-24 24zm104-24c0 13.3-10.7 24-24 24s-24-10.7-24-24s10.7-24 24-24s24 10.7 24 24z"/>
  </symbol>
  <symbol id="fa-wifi-slash" viewBox="0 0 640 512">
    <path d="M501.91 154.88C376.5 41.25 186.2 36.31 55.43 140.03L24.09 108.92c-6.43-6.39-6.3-16.82.36-22.98L170.37 8.01C313.35-121.92 537.12-121.92 680.1 8.01l145.92 133.68c6.66 6.16 6.79 16.59.35 22.98L792.13 198.64c-6.14 6.1-16.02 6.23-22.4.38-145.92-133.68-371.3-133.71-517.25 0-6.38 5.85-16.26 5.71-22.4-.38l-34.24 33.97c-6.43 6.39-6.3 16.82.36 22.98l.12.11zM320 352c-35.35 0-64 28.65-64 64s28.65 64 64 64 64-28.65 64-64-28.65-64-64-64z"/>
  </symbol>
  <symbol id="fa-arrow-left" viewBox="0 0 448 512">
    <path d="M257.5 445.1l-22.2 22.2c-9.4 9.4-24.6 9.4-33.9 0L7 273c-9.4-9.4-9.4-24.6 0-33.9L201.4 44.7c9.4-9.4 24.6-9.4 33.9 0l22.2 22.2c0 9.5-.2 25-.4 34.3L136.6 216H424c13.3 0 24 10.7 24 24v32c0 13.3-10.7 24-24 24H136.6l120.5 114.8c9.8 9.3 10 24.8.4 34.3z"/>
  </symbol>
  <symbol id="fa-bars" viewBox="0 0 448 512">
    <path d="M0 96C0 78.3 14.3 64 32 64H416c17.7 0 32 14.3 32 32s-14.3 32-32 32H32C14.3 128 0 113.7 0 96zM0 256c0-17.7 14.3-32 32-32H416c17.7 0 32 14.3 32 32s-14.3 32-32 32H32c-17.7 0-32-14.3-32-32zM448 416c0 17.7-14.3 32-32 32H32c-17.7 0-32-14.3-32-32s14.3-32 32-32H416c17.7 0 32 14.3 32 32z"/>
  </symbol>
  <symbol id="fa-xmark" viewBox="0 0 320 512">
    <path d="M310.6 150.6c12.5-12.5 12.5-32.8 0-45.3s-32.8-12.5-45.3 0L160 210.7 54.6 105.4c-12.5-12.5-32.8-12.5-45.3 0s-12.5 32.8 0 45.3L114.7 256 9.4 361.4c-12.5 12.5-12.5 32.8 0 45.3s32.8 12.5 45.3 0L160 301.3 265.4 406.6c12.5 12.5 32.8 12.5 45.3 0s12.5-32.8 0-45.3L205.3 256 310.6 150.6z"/>
  </symbol>
  <symbol id="fa-bolt" viewBox="0 0 320 512">
    <path d="M296 160H180.6l42.6-129.8C227.2 15 215.7 0 200 0H56C44 0 33.8 8.9 32.2 20.8l-32 240C-1.7 275.2 9.5 288 24 288h118.7L96.6 482.5c-3.6 15.2 8 29.5 23.3 29.5 8.4 0 16.4-4.4 20.8-12l176-304c9.3-15.9-2.2-36-20.7-36z"/>
  </symbol>
  <symbol id="fa-check-circle" viewBox="0 0 512 512">
    <path d="M504 256c0 136.967-111.033 248-248 248S8 392.967 8 256 119.033 8 256 8s248 111.033 248 248zM227.314 387.314l184-184c6.248-6.248 6.248-16.379 0-22.627l-22.627-22.627c-6.248-6.249-16.379-6.249-22.628 0L216 308.118l-70.059-70.059c-6.248-6.248-16.379-6.248-22.628 0l-22.627 22.627c-6.248 6.248-6.248 16.379 0 22.627l104 104c6.249 6.249 16.379 6.249 22.628.001z"/>
  </symbol>
  <symbol id="fa-chevron-down" viewBox="0 0 448 512">
    <path d="M207.029 381.476L12.686 187.132c-9.373-9.373-9.373-24.569 0-33.941l22.667-22.667c9.357-9.357 24.522-9.375 33.901-.04L224 284.505l154.745-154.021c9.379-9.335 24.544-9.317 33.901.04l22.667 22.667c9.373 9.373 9.373 24.569 0 33.941L240.971 381.476c-9.373 9.372-24.569 9.372-33.942 0z"/>
  </symbol>
  <symbol id="fa-chevron-right" viewBox="0 0 320 512">
    <path d="M285.476 272.971L91.132 467.314c-9.373 9.373-24.569 9.373-33.941 0l-22.667-22.667c-9.357-9.357-9.375-24.522-.04-33.901L188.505 256 34.484 101.255c-9.335-9.379-9.317-24.544.04-33.901l22.667-22.667c9.373-9.373 24.569-9.373 33.941 0L285.475 239.03c9.373 9.372 9.373 24.568.001 33.941z"/>
  </symbol>
  <symbol id="fa-clock" viewBox="0 0 512 512">
    <path d="M256 8C119 8 8 119 8 256s111 248 248 248 248-111 248-248S393 8 256 8zm0 448c-110.5 0-200-89.5-200-200S145.5 56 256 56s200 89.5 200 200-89.5 200-200 200zm61.8-104.4l-84.9-61.7c-3.1-2.3-4.9-5.9-4.9-9.7V116c0-6.6 5.4-12 12-12h32c6.6 0 12 5.4 12 12v141.7l66.8 48.6c5.4 3.9 6.5 11.4 2.6 16.8l-20.1 27.7c-3.9 5.3-11.4 6.5-16.7 2.6z"/>
  </symbol>
  <symbol id="fa-exclamation-circle" viewBox="0 0 512 512">
    <path d="M504 256c0 136.997-111.043 248-248 248S8 392.997 8 256C8 119.083 119.043 8 256 8s248 111.083 248 248zm-248 50c-25.405 0-46 20.595-46 46s20.595 46 46 46 46-20.595 46-46-20.595-46-46-46zm-43.673-165.346l7.418 136c.347 6.364 5.609 11.346 11.982 11.346h48.546c6.373 0 11.635-4.982 11.982-11.346l7.418-136c.375-6.874-5.098-12.654-11.982-12.654h-63.383c-6.884 0-12.356 5.78-11.981 12.654z"/>
  </symbol>
  <symbol id="fa-exclamation-triangle" viewBox="0 0 576 512">
    <path d="M569.517 440.013C587.975 472.007 564.806 512 527.94 512H48.054c-36.937 0-59.999-40.055-41.577-71.987L246.423 23.985c18.467-32.009 64.72-31.951 83.154 0l239.94 416.028zM288 354c-25.405 0-46 20.595-46 46s20.595 46 46 46 46-20.595 46-46-20.595-46-46-46zm-43.673-165.346l7.418 136c.347 6.364 5.609 11.346 11.982 11.346h48.546c6.373 0 11.635-4.982 11.982-11.346l7.418-136c.375-6.874-5.098-12.654-11.982-12.654h-63.383c-6.884 0-12.356 5.78-11.981 12.654z"/>
  </symbol>
  <symbol id="fa-file-code" viewBox="0 0 384 512">
    <path d="M384 121.941V128H256V0h6.059c6.365 0 12.47 2.529 16.971 7.029l97.941 97.941A24.005 24.005 0 0 1 384 121.941zM248 160c-13.2 0-24-10.8-24-24V0H24C10.745 0 0 10.745 0 24v464c0 13.255 10.745 24 24 24h336c13.255 0 24-10.745 24-24V160H248zM123.206 400.505a5.4 5.4 0 0 1-7.633.246l-64.866-60.812a5.4 5.4 0 0 1 0-7.879l64.866-60.812a5.4 5.4 0 0 1 7.633.246l19.579 20.885a5.4 5.4 0 0 1-.372 7.747L101.65 336l40.763 35.874a5.4 5.4 0 0 1 .372 7.747l-19.579 20.884zm51.295 50.479l-27.453-7.97a5.402 5.402 0 0 1-3.681-6.692l61.44-211.626a5.402 5.402 0 0 1 6.692-3.681l27.452 7.97a5.4 5.4 0 0 1 3.68 6.692l-61.44 211.626a5.397 5.397 0 0 1-6.69 3.681zm160.792-111.045l-64.866 60.812a5.4 5.4 0 0 1-7.633-.246l-19.58-20.885a5.4 5.4 0 0 1 .372-7.747L284.35 336l-40.763-35.874a5.4 5.4 0 0 1-.372-7.747l19.58-20.885a5.4 5.4 0 0 1 7.633-.246l64.866 60.812a5.4 5.4 0 0 1-.001 7.879z"/>
  </symbol>
  <symbol id="fa-file-contract" viewBox="0 0 384 512">
    <path d="M224 136V0H24C10.7 0 0 10.7 0 24v464c0 13.3 10.7 24 24 24h336c13.3 0 24-10.7 24-24V160H248c-13.2 0-24-10.8-24-24zM64 72c0-4.42 3.58-8 8-8h80c4.42 0 8 3.58 8 8v16c0 4.42-3.58 8-8 8H72c-4.42 0-8-3.58-8-8V72zm0 64c0-4.42 3.58-8 8-8h80c4.42 0 8 3.58 8 8v16c0 4.42-3.58 8-8 8H72c-4.42 0-8-3.58-8-8v-16zm192.81 248H304c8.84 0 16 7.16 16 16s-7.16 16-16 16h-47.19c-16.45 0-31.27-9.14-38.64-23.86-2.95-5.92-8.09-6.52-10.17-6.52s-7.22.59-10.02 6.19l-7.67 15.34a15.986 15.986 0 0 1-14.31 8.84c-.38 0-.75-.02-1.14-.05-6.45-.45-12-4.75-14.03-10.89L144 354.59l-10.61 31.88c-5.89 17.66-22.38 29.53-41 29.53H80c-8.84 0-16-7.16-16-16s7.16-16 16-16h12.39c4.83 0 9.11-3.08 10.64-7.66l18.19-54.64c3.3-9.81 12.44-16.41 22.78-16.41s19.48 6.59 22.77 16.41l13.88 41.64c19.77-16.19 54.05-9.7 66 14.16 2.02 4.06 5.96 6.5 10.16 6.5zM377 105L279.1 7c-4.5-4.5-10.6-7-17-7H256v128h128v-6.1c0-6.3-2.5-12.4-7-16.9z"/>
  </symbol>
  <symbol id="fa-gavel" viewBox="0 0 512 512">
    <path d="M504.971 199.362l-22.627-22.627c-9.373-9.373-24.569-9.373-33.941 0l-5.657 5.657L329.608 69.255l5.657-5.657c9.373-9.373 9.373-24.569 0-33.941L312.638 7.029c-9.373-9.373-24.569-9.373-33.941 0L154.246 131.48c-9.373 9.373-9.373 24.569 0 33.941l22.627 22.627c9.373 9.373 24.569 9.373 33.941 0l5.657-5.657 39.598 39.598-81.04 81.04-5.657-5.657c-12.497-12.497-32.758-12.497-45.255 0L9.373 412.118c-12.497 12.497-12.497 32.758 0 45.255l45.255 45.255c12.497 12.497 32.758 12.497 45.255 0l114.745-114.745c12.497-12.497 12.497-32.758 0-45.255l-5.657-5.657 81.04-81.04 39.598 39.598-5.657 5.657c-9.373 9.373-9.373 24.569 0 33.941l22.627 22.627c9.373 9.373 24.569 9.373 33.941 0l124.451-124.451c9.372-9.372 9.372-24.568 0-33.941z"/>
  </symbol>
  <symbol id="fa-home" viewBox="0 0 576 512">
    <path d="M280.37 148.26L96 300.11V464a16 16 0 0 0 16 16l112.06-.29a16 16 0 0 0 15.92-16V368a16 16 0 0 1 16-16h64a16 16 0 0 1 16 16v95.64a16 16 0 0 0 16 16.05L464 480a16 16 0 0 0 16-16V300L295.67 148.26a12.19 12.19 0 0 0-15.3 0zM571.6 251.47L488 182.56V44.05a12 12 0 0 0-12-12h-56a12 12 0 0 0-12 12v72.61L318.47 43a48 48 0 0 0-61 0L4.34 251.47a12 12 0 0 0-1.6 16.9l25.5 31A12 12 0 0 0 45.15 301l235.22-193.74a12.19 12.19 0 0 1 15.3 0L530.9 301a12 12 0 0 0 16.9-1.6l25.5-31a12 12 0 0 0-1.7-16.93z"/>
  </symbol>
  <symbol id="fa-info-circle" viewBox="0 0 512 512">
    <path d="M256 8C119.043 8 8 119.083 8 256c0 136.997 111.043 248 248 248s248-111.003 248-248C504 119.083 392.957 8 256 8zm0 110c23.196 0 42 18.804 42 42s-18.804 42-42 42-42-18.804-42-42 18.804-42 42-42zm56 254c0 6.627-5.373 12-12 12h-88c-6.627 0-12-5.373-12-12v-24c0-6.627 5.373-12 12-12h12v-64h-12c-6.627 0-12-5.373-12-12v-24c0-6.627 5.373-12 12-12h64c6.627 0 12 5.373 12 12v100h12c6.627 0 12 5.373 12 12v24z"/>
  </symbol>
  <symbol id="fa-lock" viewBox="0 0 448 512">
    <path d="M400 224h-24v-72C376 68.2 307.8 0 224 0S72 68.2 72 152v72H48c-26.5 0-48 21.5-48 48v192c0 26.5 21.5 48 48 48h352c26.5 0 48-21.5 48-48V272c0-26.5-21.5-48-48-48zm-104 0H152v-72c0-39.7 32.3-72 72-72s72 32.3 72 72v72z"/>
  </symbol>
  <symbol id="fa-map-marker-alt" viewBox="0 0 384 512">
    <path d="M172.268 501.67C26.97 291.031 0 269.413 0 192 0 85.961 85.961 0 192 0s192 85.961 192 192c0 77.413-26.97 99.031-172.268 309.67-9.535 13.774-29.93 13.773-39.464 0zM192 272c44.183 0 80-35.817 80-80s-35.817-80-80-80-80 35.817-80 80 35.817 80 80 80z"/>
  </symbol>
  <symbol id="fa-mobile-screen-button" viewBox="0 0 320 512">
    <path d="M272 0H48C21.5 0 0 21.5 0 48v416c0 26.5 21.5 48 48 48h224c26.5 0 48-21.5 48-48V48c0-26.5-21.5-48-48-48zM160 480c-17.7 0-32-14.3-32-32s14.3-32 32-32 32 14.3 32 32-14.3 32-32 32zm112-108c0 6.6-5.4 12-12 12H60c-6.6 0-12-5.4-12-12V60c0-6.6 5.4-12 12-12h200c6.6 0 12 5.4 12 12v312z"/>
  </symbol>
  <symbol id="fa-mosque" viewBox="0 0 640 512">
    <path d="M0 480c0 17.67 14.33 32 32 32h64c17.67 0 32-14.33 32-32V160H0v320zm579.16-192c17.86-17.39 28.84-37.34 28.84-58.91 0-52.86-41.79-93.79-87.92-122.9-41.94-26.47-80.63-57.77-111.96-96.22L400 0l-8.12 9.97c-31.33 38.45-70.01 69.76-111.96 96.22C233.79 135.3 192 176.23 192 229.09c0 21.57 10.98 41.52 28.84 58.91h358.32zM608 320H192c-17.67 0-32 14.33-32 32v128c0 17.67 14.33 32 32 32h32v-64c0-17.67 14.33-32 32-32s32 14.33 32 32v64h64v-72c0-48 48-72 48-72s48 24 48 72v72h64v-64c0-17.67 14.33-32 32-32s32 14.33 32 32v64h32c17.67 0 32-14.33 32-32V352c0-17.67-14.33-32-32-32zM64 0S0 32 0 96v32h128V96c0-64-64-96-64-96z"/>
  </symbol>
  <symbol id="fa-city" viewBox="0 0 640 512">
    <path d="M616 192H480V24c0-13.26-10.74-24-24-24H312c-13.26 0-24 10.74-24 24v72h-64V16c0-8.84-7.16-16-16-16h-16c-8.84 0-16 7.16-16 16v80h-64V16c0-8.84-7.16-16-16-16H80c-8.84 0-16 7.16-16 16v80H24c-13.26 0-24 10.74-24 24v360c0 17.67 14.33 32 32 32h576c17.67 0 32-14.33 32-32V216c0-13.26-10.75-24-24-24zM128 404c0 6.63-5.37 12-12 12H76c-6.63 0-12-5.37-12-12v-40c0-6.63 5.37-12 12-12h40c6.63 0 12 5.37 12 12v40zm0-96c0 6.63-5.37 12-12 12H76c-6.63 0-12-5.37-12-12v-40c0-6.63 5.37-12 12-12h40c6.63 0 12 5.37 12 12v40zm0-96c0 6.63-5.37 12-12 12H76c-6.63 0-12-5.37-12-12v-40c0-6.63 5.37-12 12-12h40c6.63 0 12 5.37 12 12v40zm128 192c0 6.63-5.37 12-12 12h-40c-6.63 0-12-5.37-12-12v-40c0-6.63 5.37-12 12-12h40c6.63 0 12 5.37 12 12v40zm0-96c0 6.63-5.37 12-12 12h-40c-6.63 0-12-5.37-12-12v-40c0-6.63 5.37-12 12-12h40c6.63 0 12 5.37 12 12v40zm0-96c0 6.63-5.37 12-12 12h-40c-6.63 0-12-5.37-12-12v-40c0-6.63 5.37-12 12-12h40c6.63 0 12 5.37 12 12v40zm160 96c0 6.63-5.37 12-12 12h-40c-6.63 0-12-5.37-12-12v-40c0-6.63 5.37-12 12-12h40c6.63 0 12 5.37 12 12v40zm0-96c0 6.63-5.37 12-12 12h-40c-6.63 0-12-5.37-12-12v-40c0-6.63 5.37-12 12-12h40c6.63 0 12 5.37 12 12v40zm0-96c0 6.63-5.37 12-12 12h-40c-6.63 0-12-5.37-12-12V84c0-6.63 5.37-12 12-12h40c6.63 0 12 5.37 12 12v40zm160 288c0 6.63-5.37 12-12 12h-40c-6.63 0-12-5.37-12-12v-40c0-6.63 5.37-12 12-12h40c6.63 0 12 5.37 12 12v40zm0-96c0 6.63-5.37 12-12 12h-40c-6.63 0-12-5.37-12-12v-40c0-6.63 5.37-12 12-12h40c6.63 0 12 5.37 12 12v40zm0-96c0 6.63-5.37 12-12 12h-40c-6.63 0-12-5.37-12-12v-40c0-6.63 5.37-12 12-12h40c6.63 0 12 5.37 12 12v40z"/>
  </symbol>
  <symbol id="fa-location-dot" viewBox="0 0 384 512">
    <path d="M215.7 499.2C267 435 384 279.4 384 192C384 86 298 0 192 0S0 86 0 192c0 87.4 117 243 168.3 307.2c12.3 15.3 35.1 15.3 47.4 0zM192 128a64 64 0 1 1 0 128 64 64 0 1 1 0-128z"/>
  </symbol>
  <symbol id="fa-network-wired" viewBox="0 0 640 512">
    <path d="M640 264v-16c0-8.84-7.16-16-16-16H344v-40h72c17.67 0 32-14.33 32-32V32c0-17.67-14.33-32-32-32H224c-17.67 0-32 14.33-32 32v128c0 17.67 14.33 32 32 32h72v40H16c-8.84 0-16 7.16-16 16v16c0 8.84 7.16 16 16 16h104v40H64c-17.67 0-32 14.33-32 32v128c0 17.67 14.33 32 32 32h160c17.67 0 32-14.33 32-32V352c0-17.67-14.33-32-32-32h-56v-40h304v40h-56c-17.67 0-32 14.33-32 32v128c0 17.67 14.33 32 32 32h160c17.67 0 32-14.33 32-32V352c0-17.67-14.33-32-32-32h-56v-40h104c8.84 0 16-7.16 16-16zM256 128V64h128v64H256zm-64 320H96v-64h96v64zm352 0h-96v-64h96v64z"/>
  </symbol>
  <symbol id="fa-search" viewBox="0 0 512 512">
    <path d="M505 442.7L405.3 343c-4.5-4.5-10.6-7-17-7H372c27.6-35.3 44-79.7 44-128C416 93.1 322.9 0 208 0S0 93.1 0 208s93.1 208 208 208c48.3 0 92.7-16.4 128-44v16.3c0 6.4 2.5 12.5 7 17l99.7 99.7c9.4 9.4 24.6 9.4 33.9 0l28.3-28.3c9.4-9.4 9.4-24.6.1-34zM208 336c-70.7 0-128-57.2-128-128 0-70.7 57.2-128 128-128 70.7 0 128 57.2 128 128 0 70.7-57.2 128-128 128z"/>
  </symbol>
  <symbol id="fa-shield-alt" viewBox="0 0 512 512">
    <path d="M466.5 83.7l-192-80a48.15 48.15 0 0 0-36.9 0l-192 80C27.7 91.1 16 108.6 16 128c0 198.5 114.5 335.7 221.5 380.3 11.8 4.9 25.1 4.9 36.9 0C360.1 472.6 496 349.3 496 128c0-19.4-11.7-36.9-29.5-44.3zM256.1 446.3l-.1-381 175.9 73.3c-3.3 151.4-82.1 261.1-175.8 307.7z"/>
  </symbol>
  <symbol id="fa-spinner" viewBox="0 0 512 512">
    <path d="M304 48c0 26.51-21.49 48-48 48s-48-21.49-48-48 21.49-48 48-48 48 21.49 48 48zm-48 368c-26.51 0-48 21.49-48 48s21.49 48 48 48 48-21.49 48-48-21.49-48-48-48zm208-208c-26.51 0-48 21.49-48 48s21.49 48 48 48 48-21.49 48-48-21.49-48-48-48zM96 256c0-26.51-21.49-48-48-48S0 229.49 0 256s21.49 48 48 48 48-21.49 48-48zm12.922 99.078c-26.51 0-48 21.49-48 48s21.49 48 48 48 48-21.49 48-48c0-26.509-21.491-48-48-48zm294.156 0c-26.51 0-48 21.49-48 48s21.49 48 48 48 48-21.49 48-48c0-26.509-21.49-48-48-48zM108.922 60.922c-26.51 0-48 21.49-48 48s21.49 48 48 48 48-21.49 48-48-21.491-48-48-48z"/>
  </symbol>
  <symbol id="fa-star" viewBox="0 0 576 512">
    <path d="M259.3 17.8L194 150.2 47.9 171.5c-26.2 3.8-36.7 36.1-17.7 54.6l105.7 103-25 145.5c-4.5 26.3 23.2 46 46.4 33.7L288 439.6l130.7 68.7c23.2 12.2 50.9-7.4 46.4-33.7l-25-145.5 105.7-103c19-18.5 8.5-50.8-17.7-54.6L382 150.2 316.7 17.8c-11.7-23.6-45.6-23.9-57.4 0z"/>
  </symbol>
  <symbol id="fa-sync" viewBox="0 0 512 512">
    <path d="M440.65 12.57l4 82.77A247.16 247.16 0 0 0 255.83 8C134.73 8 33.91 94.92 12.29 209.82A12 12 0 0 0 24.09 224h49.05a12 12 0 0 0 11.67-9.26 175.91 175.91 0 0 1 317-56.94l-101.46-4.86a12 12 0 0 0-12.57 12v47.41a12 12 0 0 0 12 12H500a12 12 0 0 0 12-12V12a12 12 0 0 0-12-12h-47.37a12 12 0 0 0-11.98 12.57zM255.83 432a175.61 175.61 0 0 1-146-77.8l101.8 4.87a12 12 0 0 0 12.57-12v-47.4a12 12 0 0 0-12-12H12a12 12 0 0 0-12 12V500a12 12 0 0 0 12 12h47.35a12 12 0 0 0 12-12.6l-4.15-82.57A247.17 247.17 0 0 0 255.83 504c121.11 0 221.93-86.92 243.55-201.82a12 12 0 0 0-11.8-14.18h-49.05a12 12 0 0 0-11.67 9.26A175.86 175.86 0 0 1 255.83 432z"/>
  </symbol>
  <symbol id="fa-tools" viewBox="0 0 512 512">
    <path d="M501.1 395.7L384 278.6c-23.1-23.1-57.6-27.6-85.4-13.9L192 158.1V96L64 0 0 64l96 128h62.1l106.6 106.6c-13.6 27.8-9.2 62.3 13.9 85.4l117.1 117.1c14.6 14.6 38.2 14.6 52.7 0l52.7-52.7c14.5-14.6 14.5-38.2 0-52.7zM331.7 225c28.3 0 54.9 11 74.9 31l19.4 19.4c15.8-6.9 30.8-16.5 43.8-29.5 37.1-37.1 49.7-89.3 37.9-136.7-2.2-9-13.5-12.1-20.1-5.5l-74.4 74.4-67.9-11.3L334 98.9l74.4-74.4c6.6-6.6 3.4-17.9-5.7-20.2-47.4-11.7-99.6.9-136.6 37.9-28.5 28.5-41.9 66.1-41.2 103.6l82.1 82.1c8.1-1.9 16.5-2.9 24.7-2.9zm-103.9 82l-56.7-56.7L18.7 402.8c-25 25-25 65.5 0 90.5s65.5 25 90.5 0l123.6-123.6c-7.6-19.9-9.9-41.6-5-62.7zM64 472c-13.2 0-24-10.8-24-24 0-13.3 10.7-24 24-24s24 10.7 24 24c0 13.2-10.7 24-24 24z"/>
  </symbol>
  <symbol id="fa-user-circle" viewBox="0 0 496 512">
    <path d="M248 8C111 8 0 119 0 256s111 248 248 248 248-111 248-248S385 8 248 8zm0 96c48.6 0 88 39.4 88 88s-39.4 88-88 88-88-39.4-88-88 39.4-88 88-88zm0 344c-58.7 0-111.3-26.6-146.5-68.2 18.8-35.4 55.6-59.8 98.5-59.8 2.4 0 4.8.4 7.1 1.1 13 4.2 26.6 6.9 40.9 6.9 14.3 0 28-2.7 40.9-6.9 2.3-.7 4.7-1.1 7.1-1.1 42.9 0 79.7 24.4 98.5 59.8C359.3 421.4 306.7 448 248 448z"/>
  </symbol>
  <symbol id="fa-paper-plane" viewBox="0 0 512 512">
    <path d="M498.1 5.6c10.1 7 15.4 19.1 13.5 31.2l-64 416c-1.5 9.7-7.4 18.2-16 23s-18.9 5.4-28 1.6L284 427.7l-68.5 74.1c-8.9 9.7-22.9 12.9-35.2 8.1S160 493.2 160 480V396.4c0-4 1.5-7.8 4.2-10.7L416 128 164.4 349.9c-3.4 3-8.1 4.2-12.5 3.1l-128-32c-12.3-3.1-21.1-13.2-22.9-25.8s4.8-24.3 16.5-30.3l448-256c10.7-6.1 23.9-5.5 34 1.4z"/>
  </symbol>
  <symbol id="fa-telegram" viewBox="0 0 496 512">
    <path d="M248 8C111 8 0 119 0 256s111 248 248 248 248-111 248-248S385 8 248 8zm121.8 169.9l-40.7 191.8c-3 13.6-11.1 16.9-22.4 10.5l-62-45.7-29.9 28.8c-3.3 3.3-6.1 6.1-12.5 6.1l4.4-63.1 114.9-103.8c5-4.4-1.1-6.9-7.7-2.5l-142 89.4-61.2-19.1c-13.3-4.2-13.6-13.3 2.8-19.7l239.1-92.2c11.1-4 20.8 2.7 17.6 17.6z"/>
  </symbol>
  <symbol id="fa-tag-solid" viewBox="0 0 448 512">
    <path d="M0 252.1V48C0 21.5 21.5 0 48 0h204.1a48 48 0 0 1 33.9 14.1l211.9 211.9c18.7 18.7 18.7 49.1 0 67.9L293.8 497.9c-18.7 18.7-49.1 18.7-67.9 0L14.1 286a48 48 0 0 1-14.1-33.9zm64-156.1a32 32 0 1 0 64 0 32 32 0 1 0-64 0z"/>
  </symbol>
  <symbol id="fa-user-shield" viewBox="0 0 640 512">
    <path d="M622.3 271.1l-115.2-45c-4.1-1.6-12.6-3.7-22.2 0l-115.2 45c-10.7 4.2-17.7 14-17.7 24.9 0 111.6 68.7 188.8 132.9 213.9 9.6 3.7 18 1.6 22.2 0C558.4 489.9 640 420.5 640 296c0-10.9-7-20.7-17.7-24.9zM496 462.4V273.3l95.5 37.3c-5.6 87.1-60.9 135.4-95.5 151.8zM224 256c70.7 0 128-57.3 128-128S294.7 0 224 0 96 57.3 96 128s57.3 128 128 128zm96 40c0-2.5.8-4.8 1.1-7.2-2.5-.1-4.9-.8-7.5-.8h-16.7c-22.2 10.2-46.9 16-72.9 16s-50.6-5.8-72.9-16h-16.7C60.2 288 0 348.2 0 422.4V464c0 26.5 21.5 48 48 48h352c6.8 0 13.3-1.5 19.2-4-54-42.9-99.2-116.7-99.2-212z"/>
  </symbol>
  <symbol id="fa-wifi" viewBox="0 0 640 512">
    <path d="M634.91 154.88C457.74-8.99 182.19-8.93 5.09 154.88c-6.66 6.16-6.79 16.59-.35 22.98l34.24 33.97c6.14 6.1 16.02 6.23 22.4.38 145.92-133.68 371.3-133.71 517.25 0 6.38 5.85 16.26 5.71 22.4-.38l34.24-33.97c6.43-6.39 6.3-16.82-.36-22.98zM320 352c-35.35 0-64 28.65-64 64s28.65 64 64 64 64-28.65 64-64-28.65-64-64-64zm202.67-83.59c-115.26-101.93-290.21-101.82-405.34 0-6.9 6.1-7.12 16.69-.57 23.15l34.44 33.99c6 5.92 15.66 6.32 22.05.8 83.95-72.57 209.74-72.41 293.49 0 6.39 5.52 16.05 5.13 22.05-.8l34.44-33.99c6.56-6.46 6.33-17.06-.56-23.15z"/>
  </symbol>
  <symbol id="brand-apple" viewBox="0 0 640 640">
    <path d="M447.1 332.7C446.9 296 463.5 268.3 497.1 247.9C478.3 221 449.9 206.2 412.4 203.3C376.9 200.5 338.1 224 323.9 224C308.9 224 274.5 204.3 247.5 204.3C191.7 205.2 132.4 248.8 132.4 337.5C132.4 363.7 137.2 390.8 146.8 418.7C159.6 455.4 205.8 545.4 254 543.9C279.2 543.3 297 526 329.8 526C361.6 526 378.1 543.9 406.2 543.9C454.8 543.2 496.6 461.4 508.8 424.6C443.6 393.9 447.1 334.6 447.1 332.7zM390.5 168.5C417.8 136.1 415.3 106.6 414.5 96C390.4 97.4 362.5 112.4 346.6 130.9C329.1 150.7 318.8 175.2 321 202.8C347.1 204.8 370.9 191.4 390.5 168.5z"/>
  </symbol>
  <symbol id="brand-android" viewBox="0 0 48 48">
    <g>
      <path d="M7.7,16.2A2.7,2.7,0,0,0,5,18.9V30.3a2.8,2.8,0,0,0,1.2,2.3,2.6,2.6,0,0,0,1.5.4,2.7,2.7,0,0,0,2.2-1.1l.2-.3.3-.7v-12A2.7,2.7,0,0,0,7.7,16.2Z"/>
      <path d="M29.6,6l1.9-3.4c0-.1.1-.1.1-.2a.8.8,0,0,0-.2-.4h-.5l-2,3.5a4.9,4.9,0,0,0-1.7-.6,13.6,13.6,0,0,0-3.6-.5H21.8a12.9,12.9,0,0,0-3.5,1L16.4,2.2A.5.5,0,0,0,16,2h-.2a.4.4,0,0,0-.1.3v.2L17.6,6h0a11.8,11.8,0,0,0-4.4,3.9l-.5.8-.6,1.4a8.9,8.9,0,0,0-.7,3.6H35.8A11.1,11.1,0,0,0,29.6,6ZM18.1,11.4A1.1,1.1,0,0,1,17,10.3a1.1,1.1,0,0,1,1.1-1,1.1,1.1,0,0,1,1,1A1.1,1.1,0,0,1,18.1,11.4Zm11.1,0a1,1,0,0,1-1-1.1,1,1,0,0,1,2,0A1,1,0,0,1,29.2,11.4Z"/>
      <path d="M11.5,16.8V34.4a2.9,2.9,0,0,0,2.9,2.9h2v6A2.6,2.6,0,0,0,18,45.8h1.1l1-.2a2.7,2.7,0,0,0,1.7-2.5v-6h3.7v6a2.7,2.7,0,1,0,5.4,0v-6h2a3.5,3.5,0,0,0,1.7-.6,2.9,2.9,0,0,0,1.2-2.3V16.8Z"/>
      <path d="M42.2,18.9a2.6,2.6,0,0,0-2.1-2.6h-.6a2.7,2.7,0,0,0-2.7,2.7V30.3a2.7,2.7,0,1,0,5.4,0Z"/>
    </g>
  </symbol>
  <symbol id="fa-ellipsis-vertical" viewBox="0 0 128 512">
    <path d="M64 352a64 64 0 1 0 0 128 64 64 0 1 0 0-128zm0-160a64 64 0 1 0 0 128 64 64 0 1 0 0-128zm0-160a64 64 0 1 0 0 128 64 64 0 1 0 0-128z"/>
  </symbol>
  <symbol id="fa-share-square" viewBox="0 0 448 512">
    <path d="M448 344v112a56 56 0 0 1-56 56H56a56 56 0 0 1-56-56V344a56 56 0 0 1 56-56h40a16 16 0 0 1 16 16v8a16 16 0 0 0 16 16h192a16 16 0 0 0 16-16v-8a16 16 0 0 1 16-16h40a56 56 0 0 1 56 56zM176 154v118c0 13.3 10.7 24 24 24h48c13.3 0 24-10.7 24-24V154h43c14.3 0 21.4-17.2 11.3-27.3l-83-83a16 16 0 0 0-22.6 0l-83 83C127.6 136.8 134.7 154 149 154h27z"/>
  </symbol>
  <symbol id="fa-camera" viewBox="0 0 640 640">
    <path d="M213.1 128.8L202.7 160L128 160C92.7 160 64 188.7 64 224L64 480C64 515.3 92.7 544 128 544L512 544C547.3 544 576 515.3 576 480L576 224C576 188.7 547.3 160 512 160L437.3 160L426.9 128.8C420.4 109.2 402.1 96 381.4 96L258.6 96C237.9 96 219.6 109.2 213.1 128.8zM320 256C373 256 416 299 416 352C416 405 373 448 320 448C267 448 224 405 224 352C224 299 267 256 320 256z"/>
  </symbol>
  <symbol id="fa-code" viewBox="0 0 640 640">
    <path d="M278.9 511.5l-61-17.7c-6.4-1.8-10-8.5-8.2-14.9L346.2 87.3c1.8-6.4 8.5-10 14.9-8.2l61 17.7c6.4 1.8 10 8.5 8.2 14.9L293.8 503.3c-1.8 6.4-8.5 10.1-14.9 8.2zm-115-202.2l63.5 60.2c7.6 7.2 7.9 19.2.7 26.8l-42.9 45.4c-7.2 7.6-19.2 7.9-26.8.7L3.8 336.7c-5.1-4.8-5.1-12.9 0-17.8L158.4 213c7.6-7.2 19.6-6.9 26.8.7l42.9 45.4c7.2 7.6 6.9 19.6-.7 26.8l-63.5 60.2c-5.1 4.8-5.1 12.9 0 17.8l.1-.2zM481.6 336.7l-63.5-60.2c-7.6-7.2-7.9-19.2-.7-26.8l42.9-45.4c7.2-7.6 19.2-7.9 26.8-.7L636.2 319c5.1 4.8 5.1 12.9 0 17.8L481.6 427c-7.6 7.2-19.6 6.9-26.8-.7l-42.9-45.4c-7.2-7.6-6.9-19.6.7-26.8l63.5-60.2c5.1-4.8 5.1-12.9 0-17.8l-.5-.4z"/>
  </symbol>
  <symbol id="fa-tag-solid" viewBox="0 0 640 640">
    <path d="M96.5 160L96.5 309.5C96.5 326.5 103.2 342.8 115.2 354.8L307.2 546.8C332.2 571.8 372.7 571.8 397.7 546.8L547.2 397.3C572.2 372.3 572.2 331.8 547.2 306.8L355.2 114.8C343.2 102.7 327 96 310 96L160.5 96C125.2 96 96.5 124.7 96.5 160zM208.5 176C226.2 176 240.5 190.3 240.5 208C240.5 225.7 226.2 240 208.5 240C190.8 240 176.5 225.7 176.5 208C176.5 190.3 190.8 176 208.5 176z"/>
  </symbol>
  <symbol id="fa-chevron-up-solid" viewBox="0 0 640 640">
    <path d="M297.4 169.4C309.9 156.9 330.2 156.9 342.7 169.4L534.7 361.4C547.2 373.9 547.2 394.2 534.7 406.7C522.2 419.2 501.9 419.2 489.4 406.7L320 237.3L150.6 406.6C138.1 419.1 117.8 419.1 105.3 406.6C92.8 394.1 92.8 373.8 105.3 361.3L297.3 169.3z"/>
  </symbol>
  <symbol id="fa-chevron-left-solid" viewBox="0 0 640 640">
    <path d="M169.4 297.4C156.9 309.9 156.9 330.2 169.4 342.7L361.4 534.7C373.9 547.2 394.2 547.2 406.7 534.7C419.2 522.2 419.2 501.9 406.7 489.4L237.3 320L406.6 150.6C419.1 138.1 419.1 117.8 406.6 105.3C394.1 92.8 373.8 92.8 361.3 105.3L169.3 297.3z"/>
  </symbol>
  <symbol id="fa-chevron-down-solid" viewBox="0 0 640 640">
    <path d="M297.4 470.6C309.9 483.1 330.2 483.1 342.7 470.6L534.7 278.6C547.2 266.1 547.2 245.8 534.7 233.3C522.2 220.8 501.9 220.8 489.4 233.3L320 402.7L150.6 233.4C138.1 220.9 117.8 220.9 105.3 233.4C92.8 245.9 92.8 266.2 105.3 278.7L297.3 470.7z"/>
  </symbol>
  <symbol id="fa-book-open-solid" viewBox="0 0 640 640">
    <path d="M320 205.3L320 514.6L320.5 514.4C375.1 491.7 433.7 480 492.8 480L512 480L512 160L492.8 160C450.6 160 408.7 168.4 369.7 184.6C352.9 191.6 336.3 198.5 320 205.3zM294.9 125.5L320 136L345.1 125.5C391.9 106 442.1 96 492.8 96L528 96C554.5 96 576 117.5 576 144L576 496C576 522.5 554.5 544 528 544L492.8 544C442.1 544 391.9 554 345.1 573.5L332.3 578.8C324.4 582.1 315.6 582.1 307.7 578.8L294.9 573.5C248.1 554 197.9 544 147.2 544L112 544C85.5 544 64 522.5 64 496L64 144C64 117.5 85.5 96 112 96L147.2 96C197.9 96 248.1 106 294.9 125.5z"/>
  </symbol>
  <symbol id="fa-sliders" viewBox="0 0 640 640">
    <path d="M96 128C78.3 128 64 142.3 64 160C64 177.7 78.3 192 96 192L182.7 192C195 220.3 223.2 240 256 240C288.8 240 317 220.3 329.3 192L544 192C561.7 192 576 177.7 576 160C576 142.3 561.7 128 544 128L329.3 128C317 99.7 288.8 80 256 80C223.2 80 195 99.7 182.7 128L96 128zM96 288C78.3 288 64 302.3 64 320C64 337.7 78.3 352 96 352L342.7 352C355 380.3 383.2 400 416 400C448.8 400 477 380.3 489.3 352L544 352C561.7 352 576 337.7 576 320C576 302.3 561.7 288 544 288L489.3 288C477 259.7 448.8 240 416 240C383.2 240 355 259.7 342.7 288L96 288zM96 448C78.3 448 64 462.3 64 480C64 497.7 78.3 512 96 512L150.7 512C163 540.3 191.2 560 224 560C256.8 560 285 540.3 297.3 512L544 512C561.7 512 576 497.7 576 480C576 462.3 561.7 448 544 448L297.3 448C285 419.7 256.8 400 224 400C191.2 400 163 419.7 150.7 448L96 448z"/>
  </symbol>
  <symbol id="fa-list-ul" viewBox="0 0 640 640">
    <path d="M112 208C138.5 208 160 186.5 160 160C160 133.5 138.5 112 112 112C85.5 112 64 133.5 64 160C64 186.5 85.5 208 112 208zM256 128C238.3 128 224 142.3 224 160C224 177.7 238.3 192 256 192L544 192C561.7 192 576 177.7 576 160C576 142.3 561.7 128 544 128L256 128zM256 288C238.3 288 224 302.3 224 320C224 337.7 238.3 352 256 352L544 352C561.7 352 576 337.7 576 320C576 302.3 561.7 288 544 288L256 288zM256 448C238.3 448 224 462.3 224 480C224 497.7 238.3 512 256 512L544 512C561.7 512 576 497.7 576 480C576 462.3 561.7 448 544 448L256 448zM112 528C138.5 528 160 506.5 160 480C160 453.5 138.5 432 112 432C85.5 432 64 453.5 64 480C64 506.5 85.5 528 112 528zM160 320C160 293.5 138.5 272 112 272C85.5 272 64 293.5 64 320C64 346.5 85.5 368 112 368C138.5 368 160 346.5 160 320z"/>
  </symbol>
  <symbol id="fa-circle-question" viewBox="0 0 640 640">
    <path d="M320 576C461.4 576 576 461.4 576 320C576 178.6 461.4 64 320 64C178.6 64 64 178.6 64 320C64 461.4 178.6 576 320 576zM320 240C302.3 240 288 254.3 288 272C288 285.3 277.3 296 264 296C250.7 296 240 285.3 240 272C240 227.8 275.8 192 320 192C364.2 192 400 227.8 400 272C400 319.2 364 339.2 344 346.5L344 350.3C344 363.6 333.3 374.3 320 374.3C306.7 374.3 296 363.6 296 350.3L296 342.2C296 321.7 310.8 307 326.1 302C332.5 299.9 339.3 296.5 344.3 291.7C348.6 287.5 352 281.7 352 272.1C352 254.4 337.7 240.1 320 240.1zM288 432C288 414.3 302.3 400 320 400C337.7 400 352 414.3 352 432C352 449.7 337.7 464 320 464C302.3 464 288 449.7 288 432z"/>
  </symbol>
  <symbol id="fa-link-solid" viewBox="0 0 640 640">
    <path d="M451.5 160C434.9 160 418.8 164.5 404.7 172.7C388.9 156.7 370.5 143.3 350.2 133.2C378.4 109.2 414.3 96 451.5 96C537.9 96 608 166 608 252.5C608 294 591.5 333.8 562.2 363.1L491.1 434.2C461.8 463.5 422 480 380.5 480C294.1 480 224 410 224 323.5C224 322 224 320.5 224.1 319C224.6 301.3 239.3 287.4 257 287.9C274.7 288.4 288.6 303.1 288.1 320.8C288.1 321.7 288.1 322.6 288.1 323.4C288.1 374.5 329.5 415.9 380.6 415.9C405.1 415.9 428.6 406.2 446 388.8L517.1 317.7C534.4 300.4 544.2 276.8 544.2 252.3C544.2 201.2 502.8 159.8 451.7 159.8zM307.2 237.3C305.3 236.5 303.4 235.4 301.7 234.2C289.1 227.7 274.7 224 259.6 224C235.1 224 211.6 233.7 194.2 251.1L123.1 322.2C105.8 339.5 96 363.1 96 387.6C96 438.7 137.4 480.1 188.5 480.1C205 480.1 221.1 475.7 235.2 467.5C251 483.5 269.4 496.9 289.8 507C261.6 530.9 225.8 544.2 188.5 544.2C102.1 544.2 32 474.2 32 387.7C32 346.2 48.5 306.4 77.8 277.1L148.9 206C178.2 176.7 218 160.2 259.5 160.2C346.1 160.2 416 230.8 416 317.1C416 318.4 416 319.7 416 321C415.6 338.7 400.9 352.6 383.2 352.2C365.5 351.8 351.6 337.1 352 319.4C352 318.6 352 317.9 352 317.1C352 283.4 334 253.8 307.2 237.5z"/>
  </symbol>
  <symbol id="fa-clock-solid" viewBox="0 0 640 640">
    <path d="M320 64C461.4 64 576 178.6 576 320C576 461.4 461.4 576 320 576C178.6 576 64 461.4 64 320C64 178.6 178.6 64 320 64zM296 184L296 320C296 328 300 335.5 306.7 340L402.7 404C413.7 411.4 428.6 408.4 436 397.3C443.4 386.2 440.4 371.4 429.3 364L344 307.2L344 184C344 170.7 333.3 160 320 160C306.7 160 296 170.7 296 184z"/>
  </symbol>
  <symbol id="fa-calendar-days-solid" viewBox="0 0 640 640">
    <path d="M224 64C241.7 64 256 78.3 256 96L256 128L384 128L384 96C384 78.3 398.3 64 416 64C433.7 64 448 78.3 448 96L448 128L480 128C515.3 128 544 156.7 544 192L544 480C544 515.3 515.3 544 480 544L160 544C124.7 544 96 515.3 96 480L96 192C96 156.7 124.7 128 160 128L192 128L192 96C192 78.3 206.3 64 224 64zM160 304L160 336C160 344.8 167.2 352 176 352L208 352C216.8 352 224 344.8 224 336L224 304C224 295.2 216.8 288 208 288L176 288C167.2 288 160 295.2 160 304zM288 304L288 336C288 344.8 295.2 352 304 352L336 352C344.8 352 352 344.8 352 336L352 304C352 295.2 344.8 288 336 288L304 288C295.2 288 288 295.2 288 304zM432 288C423.2 288 416 295.2 416 304L416 336C416 344.8 423.2 352 432 352L464 352C472.8 352 480 344.8 480 336L480 304C480 295.2 472.8 288 464 288L432 288zM160 432L160 464C160 472.8 167.2 480 176 480L208 480C216.8 480 224 472.8 224 464L224 432C224 423.2 216.8 416 208 416L176 416C167.2 416 160 423.2 160 432zM304 416C295.2 416 288 423.2 288 432L288 464C288 472.8 295.2 480 304 480L336 480C344.8 480 352 472.8 352 464L352 432C352 423.2 344.8 416 336 416L304 416zM416 432L416 464C416 472.8 423.2 480 432 480L464 480C472.8 480 480 472.8 480 464L480 432C480 423.2 472.8 416 464 416L432 416C423.2 416 416 423.2 416 432z"/>
  </symbol>
  <symbol id="fa-clock-rotate-left-solid" viewBox="0 0 640 640">
    <path d="M320 128C426 128 512 214 512 320C512 426 426 512 320 512C254.8 512 197.1 479.5 162.4 429.7C152.3 415.2 132.3 411.7 117.8 421.8C103.3 431.9 99.8 451.9 109.9 466.4C156.1 532.6 233 576 320 576C461.4 576 576 461.4 576 320C576 178.6 461.4 64 320 64C234.3 64 158.5 106.1 112 170.7L112 144C112 126.3 97.7 112 80 112C62.3 112 48 126.3 48 144L48 256C48 273.7 62.3 288 80 288L104.6 288C105.1 288 105.6 288 106.1 288L192.1 288C209.8 288 224.1 273.7 224.1 256C224.1 238.3 209.8 224 192.1 224L153.8 224C186.9 166.6 249 128 320 128zM344 216C344 202.7 333.3 192 320 192C306.7 192 296 202.7 296 216L296 320C296 326.4 298.5 332.5 303 337L375 409C384.4 418.4 399.6 418.4 408.9 409C418.2 399.6 418.3 384.4 408.9 375.1L343.9 310.1L343.9 216z"/>
  </symbol>
  <symbol id="fa-circle-xmark-solid" viewBox="0 0 640 640">
    <path d="M320 576C461.4 576 576 461.4 576 320C576 178.6 461.4 64 320 64C178.6 64 64 178.6 64 320C64 461.4 178.6 576 320 576zM231 231C240.4 221.6 255.6 221.6 264.9 231L319.9 286L374.9 231C384.3 221.6 399.5 221.6 408.8 231C418.1 240.4 418.2 255.6 408.8 264.9L353.8 319.9L408.8 374.9C418.2 384.3 418.2 399.5 408.8 408.8C399.4 418.1 384.2 418.2 374.9 408.8L319.9 353.8L264.9 408.8C255.5 418.2 240.3 418.2 231 408.8C221.7 399.4 221.6 384.2 231 374.9L286 319.9L231 264.9C221.6 255.5 221.6 240.3 231 231z"/>
  </symbol>
  <symbol id="fa-circle-exclamation-solid" viewBox="0 0 640 640">
    <path d="M320 576C178.6 576 64 461.4 64 320C64 178.6 178.6 64 320 64C461.4 64 576 178.6 576 320C576 461.4 461.4 576 320 576zM320 384C302.3 384 288 398.3 288 416C288 433.7 302.3 448 320 448C337.7 448 352 433.7 352 416C352 398.3 337.7 384 320 384zM320 192C301.8 192 287.3 207.5 288.6 225.7L296 329.7C296.9 342.3 307.4 352 319.9 352C332.5 352 342.9 342.3 343.8 329.7L351.2 225.7C352.5 207.5 338.1 192 319.8 192z"/>
  </symbol>
  <symbol id="fa-circle-check-solid" viewBox="0 0 640 640">
    <path d="M320 576C178.6 576 64 461.4 64 320C64 178.6 178.6 64 320 64C461.4 64 576 178.6 576 320C576 461.4 461.4 576 320 576zM438 209.7C427.3 201.9 412.3 204.3 404.5 215L285.1 379.2L233 327.1C223.6 317.7 208.4 317.7 199.1 327.1C189.8 336.5 189.7 351.7 199.1 361L271.1 433C276.1 438 282.9 440.5 289.9 440C296.9 439.5 303.3 435.9 307.4 430.2L443.3 243.2C451.1 232.5 448.7 217.5 438 209.7z"/>
  </symbol>
  <symbol id="fa-compass-solid" viewBox="0 0 512 512">
    <path d="M256 512A256 256 0 1 0 256 0a256 256 0 1 0 0 512zM232 98.6c0-12.5 10.1-22.6 22.6-22.6c11.1 0 20.3 8.1 22.2 18.8L288 160h64c17.7 0 32 14.3 32 32s-14.3 32-32 32H288l-11.2 65.2c1.4 4.5 2.2 9.2 2.2 14.2c0 24.1-19.5 43.6-43.6 43.6s-43.6-19.5-43.6-43.6c0-4.9 .8-9.7 2.2-14.2L184.8 224H128c-17.7 0-32-14.3-32-32s14.3-32 32-32h56.8l11.2-65.2c-1.9-10.7 7.3-18.8 18.4-18.8c12.5 0 22.6 10.1 22.6 22.6V128h13.2l-.4-29.4zM224 230.4L209.6 313.6c-4.4 25.4 15.1 48.4 40.8 48.4s45.2-23 40.8-48.4L276.8 230.4H224z"/>
  </symbol>
  <symbol id="fa-camera-solid" viewBox="0 0 640 640">
    <path d="M213.1 128.8L202.7 160L128 160C92.7 160 64 188.7 64 224L64 480C64 515.3 92.7 544 128 544L512 544C547.3 544 576 515.3 576 480L576 224C576 188.7 547.3 160 512 160L437.3 160L426.9 128.8C420.4 109.2 402.1 96 381.4 96L258.6 96C237.9 96 219.6 109.2 213.1 128.8zM320 256C373 256 416 299 416 352C416 405 373 448 320 448C267 448 224 405 224 352C224 299 267 256 320 256z"/>
  </symbol>
  <symbol id="fa-download-solid-full" viewBox="0 0 640 640">
    <path d="M352 96C352 78.3 337.7 64 320 64C302.3 64 288 78.3 288 96L288 306.7L246.6 265.3C234.1 252.8 213.8 252.8 201.3 265.3C188.8 277.8 188.8 298.1 201.3 310.6L297.3 406.6C309.8 419.1 330.1 419.1 342.6 406.6L438.6 310.6C451.1 298.1 451.1 277.8 438.6 265.3C426.1 252.8 405.8 252.8 393.3 265.3L352 306.7L352 96zM160 384C124.7 384 96 412.7 96 448L96 480C96 515.3 124.7 544 160 544L480 544C515.3 544 544 515.3 544 480L544 448C544 412.7 515.3 384 480 384L433.1 384L376.5 440.6C345.3 471.8 294.6 471.8 263.4 440.6L206.9 384L160 384zM464 440C477.3 440 488 450.7 488 464C488 477.3 477.3 488 464 488C450.7 488 440 477.3 440 464C440 450.7 450.7 440 464 440z"/>
  </symbol>
  <symbol id="fa-rotate-solid-full" viewBox="0 0 640 640">
    <path d="M544.1 256L552 256C565.3 256 576 245.3 576 232L576 88C576 78.3 570.2 69.5 561.2 65.8C552.2 62.1 541.9 64.2 535 71L483.3 122.8C439 86.1 382 64 320 64C191 64 84.3 159.4 66.6 283.5C64.1 301 76.2 317.2 93.7 319.7C111.2 322.2 127.4 310 129.9 292.6C143.2 199.5 223.3 128 320 128C364.4 128 405.2 143 437.7 168.3L391 215C384.1 221.9 382.1 232.2 385.8 241.2C389.5 250.2 398.3 256 408 256L544.1 256zM573.5 356.5C576 339 563.8 322.8 546.4 320.3C529 317.8 512.7 330 510.2 347.4C496.9 440.4 416.8 511.9 320.1 511.9C275.7 511.9 234.9 496.9 202.4 471.6L249 425C255.9 418.1 257.9 407.8 254.2 398.8C250.5 389.8 241.7 384 232 384L88 384C74.7 384 64 394.7 64 408L64 552C64 561.7 69.8 570.5 78.8 574.2C87.8 577.9 98.1 575.8 105 569L156.8 517.2C201 553.9 258 576 320 576C449 576 555.7 480.6 573.4 356.5z"/>
  </symbol>
  <symbol id="fa-folder-open-solid-full" viewBox="0 0 640 640">
    <path d="M88 289.6L64.4 360.2L64.4 160C64.4 124.7 93.1 96 128.4 96L267.1 96C280.9 96 294.4 100.5 305.5 108.8L343.9 137.6C349.4 141.8 356.2 144 363.1 144L480.4 144C515.7 144 544.4 172.7 544.4 208L544.4 224L179 224C137.7 224 101 250.4 87.9 289.6zM509.8 512L131 512C98.2 512 75.1 479.9 85.5 448.8L133.5 304.8C140 285.2 158.4 272 179 272L557.8 272C590.6 272 613.7 304.1 603.3 335.2L555.3 479.2C548.8 498.8 530.4 512 509.8 512z"/>
  </symbol>
  <symbol id="fa-file-edit-solid-full" viewBox="0 0 640 640">
    <path d="M128.1 64C92.8 64 64.1 92.7 64.1 128L64.1 512C64.1 547.3 92.8 576 128.1 576L274.3 576L285.2 521.5C289.5 499.8 300.2 479.9 315.8 464.3L448 332.1L448 234.6C448 217.6 441.3 201.3 429.3 189.3L322.8 82.7C310.8 70.7 294.5 64 277.6 64L128.1 64zM389.6 240L296.1 240C282.8 240 272.1 229.3 272.1 216L272.1 122.5L389.6 240zM332.3 530.9L320.4 590.5C320.2 591.4 320.1 592.4 320.1 593.4C320.1 601.4 326.6 608 334.7 608C335.7 608 336.6 607.9 337.6 607.7L397.2 595.8C409.6 593.3 421 587.2 429.9 578.3L548.8 459.4L468.8 379.4L349.9 498.3C341 507.2 334.9 518.6 332.4 531zM600.1 407.9C622.2 385.8 622.2 350 600.1 327.9C578 305.8 542.2 305.8 520.1 327.9L491.3 356.7L571.3 436.7L600.1 407.9z"/>
  </symbol>
  <symbol id="fa-file-download-solid-full" viewBox="0 0 640 640">
    <path d="M128 128C128 92.7 156.7 64 192 64L341.5 64C358.5 64 374.8 70.7 386.8 82.7L493.3 189.3C505.3 201.3 512 217.6 512 234.6L512 512C512 547.3 483.3 576 448 576L192 576C156.7 576 128 547.3 128 512L128 128zM336 122.5L336 216C336 229.3 346.7 240 360 240L453.5 240L336 122.5zM303 505C312.4 514.4 327.6 514.4 336.9 505L400.9 441C410.3 431.6 410.3 416.4 400.9 407.1C391.5 397.8 376.3 397.7 367 407.1L344 430.1L344 344C344 330.7 333.3 320 320 320C306.7 320 296 330.7 296 344L296 430.1L273 407.1C263.6 397.7 248.4 397.7 239.1 407.1C229.8 416.5 229.7 431.7 239.1 441L303.1 505z"/>
  </symbol>
  <symbol id="fa-circle-info-solid-full" viewBox="0 0 640 640">
    <path d="M320 576C461.4 576 576 461.4 576 320C576 178.6 461.4 64 320 64C178.6 64 64 178.6 64 320C64 461.4 178.6 576 320 576zM288 224C288 206.3 302.3 192 320 192C337.7 192 352 206.3 352 224C352 241.7 337.7 256 320 256C302.3 256 288 241.7 288 224zM280 288L328 288C341.3 288 352 298.7 352 312L352 400L360 400C373.3 400 384 410.7 384 424C384 437.3 373.3 448 360 448L280 448C266.7 448 256 437.3 256 424C256 410.7 266.7 400 280 400L304 400L304 336L280 336C266.7 336 256 325.3 256 312C256 298.7 266.7 288 280 288z"/>
  </symbol>
  <symbol id="fa-envelope-solid-full" viewBox="0 0 640 640">
    <path d="M112 128C85.5 128 64 149.5 64 176C64 191.1 71.1 205.3 83.2 214.4L291.2 370.4C308.3 383.2 331.7 383.2 348.8 370.4L556.8 214.4C568.9 205.3 576 191.1 576 176C576 149.5 554.5 128 528 128L112 128zM64 260L64 448C64 483.3 92.7 512 128 512L512 512C547.3 512 576 483.3 576 448L576 260L377.6 408.8C343.5 434.4 296.5 434.4 262.4 408.8L64 260z"/>
  </symbol>
  <symbol id="fa-shield-halved-solid-full" viewBox="0 0 640 640">
    <path d="M320 64C324.6 64 329.2 65 333.4 66.9L521.8 146.8C543.8 156.1 560.2 177.8 560.1 204C559.6 303.2 518.8 484.7 346.5 567.2C329.8 575.2 310.4 575.2 293.7 567.2C121.3 484.7 80.6 303.2 80.1 204C80 177.8 96.4 156.1 118.4 146.8L306.7 66.9C310.9 65 315.4 64 320 64zM320 130.8L320 508.9C458 442.1 495.1 294.1 496 205.5L320 130.9L320 130.9z"/>
  </symbol>
  <symbol id="fa-plus" viewBox="0 0 640 640">
    <path d="M352 128C352 110.3 337.7 96 320 96C302.3 96 288 110.3 288 128L288 288L128 288C110.3 288 96 302.3 96 320C96 337.7 110.3 352 128 352L288 352L288 512C288 529.7 302.3 544 320 544C337.7 544 352 529.7 352 512L352 352L512 352C529.7 352 544 337.7 544 320C544 302.3 529.7 288 512 288L352 288L352 128z"/>
  </symbol>
  <symbol id="fa-minus" viewBox="0 0 640 640">
    <path d="M96 320C96 302.3 110.3 288 128 288L512 288C529.7 288 544 302.3 544 320C544 337.7 529.7 352 512 352L128 352C110.3 352 96 337.7 96 320z"/>
  </symbol>
  <symbol id="icon-turk-bayragi" viewBox="0 0 550.4 393.6">
    <path fill="currentColor" d="M96.4,196.6c0-71.4,57.9-129.3,129.3-129.3c46,0,86.4,24,109.3,60.2c-18.9-21.1-46.4-34.4-77-34.4c-57.1,0-103.4,46.4-103.4,103.5s46.3,103.5,103.5,103.5c30.6,0,58.1-13.3,77-34.4c-22.9,36.2-63.3,60.2-109.3,60.2C154.3,325.9,96.4,268,96.4,196.6z"/>
    <polygon fill="currentColor" points="452,158.6 407.3,173.1 379.7,135.1 379.7,182.1 335.1,196.6 379.7,211.1 379.7,258.1 407.3,220.1 452,234.6 424.4,196.6"/>
  </symbol>
</svg>